<?xml version="1.0" encoding="UTF-8"?>
<svg width="40px" height="40px" viewBox="0 0 40 40" version="1.1" xmlns="http://www.w3.org/2000/svg" xmlns:xlink="http://www.w3.org/1999/xlink">
    <!-- Generator: Sketch 52.6 (67491) - http://www.bohemiancoding.com/sketch -->
    <title>symbol/red</title>
    <desc>Created with Sketch.</desc>
    <g id="symbol/red" stroke="none" stroke-width="1" fill="none" fill-rule="evenodd">
        <path d="M13.340248,36.0780636 L12.1166111,36.2463059 C8.05618269,36.8045889 4.31197722,33.9655392 3.75369414,29.9051108 C3.66147,29.2343587 3.66147,28.554141 3.75369414,27.8833889 L3.92193643,26.659752 L2.93772922,25.9134753 C-0.328193011,23.4370846 -0.968234759,18.7820202 1.50815596,15.516098 C1.91723699,14.9765923 2.39822355,14.4956057 2.93772922,14.0865247 L3.92193643,13.340248 L3.75369414,12.1166111 C3.19541106,8.05618269 6.0344608,4.31197722 10.0948892,3.75369414 C10.7656413,3.66147 11.445859,3.66147 12.1166111,3.75369414 L13.340248,3.92193643 L14.0865247,2.93772922 C16.5629154,-0.328193011 21.2179798,-0.968234759 24.483902,1.50815596 C25.0234077,1.91723699 25.5043943,2.39822355 25.9134753,2.93772922 L26.659752,3.92193643 L27.8833889,3.75369414 C31.9438173,3.19541106 35.6880228,6.0344608 36.2463059,10.0948892 C36.33853,10.7656413 36.33853,11.445859 36.2463059,12.1166111 L36.0780636,13.340248 L37.0622708,14.0865247 C40.328193,16.5629154 40.9682348,21.2179798 38.491844,24.483902 C38.082763,25.0234077 37.6017764,25.5043943 37.0622708,25.9134753 L36.0780636,26.659752 L36.2463059,27.8833889 C36.8045889,31.9438173 33.9655392,35.6880228 29.9051108,36.2463059 C29.2343587,36.33853 28.554141,36.33853 27.8833889,36.2463059 L26.659752,36.0780636 L25.9134753,37.0622708 C23.4370846,40.328193 18.7820202,40.9682348 15.516098,38.491844 C14.9765923,38.082763 14.4956057,37.6017764 14.0865247,37.0622708 L13.340248,36.0780636 Z" id="red_flower" fill="#FF5630" fill-rule="nonzero"></path>
    </g>
</svg>