<?xml version="1.0" encoding="UTF-8"?>
<svg width="40px" height="40px" viewBox="0 0 40 40" version="1.1" xmlns="http://www.w3.org/2000/svg" xmlns:xlink="http://www.w3.org/1999/xlink">
    <!-- Generator: Sketch 52.6 (67491) - http://www.bohemiancoding.com/sketch -->
    <title>symbol/blue</title>
    <desc>Created with Sketch.</desc>
    <g id="symbol/blue" stroke="none" stroke-width="1" fill="none" fill-rule="evenodd">
        <g id="Group" fill-rule="nonzero">
            <path d="M35.5566388,20 C38.2547931,22.0271751 40,25.2542245 40,28.8888889 C40,35.0253861 35.0253861,40 28.8888889,40 C25.2542245,40 22.0271751,38.2547931 20,35.5566388 C17.9728249,38.2547931 14.7457755,40 11.1111111,40 C4.97461389,40 -2.13162821e-14,35.0253861 -2.13162821e-14,28.8888889 C-2.13162821e-14,25.2542245 1.74520689,22.0271751 4.44336121,20 C1.74520689,17.9728249 -2.13162821e-14,14.7457755 -2.13162821e-14,11.1111111 C-2.13162821e-14,4.97461389 4.97461389,3.55271368e-15 11.1111111,3.55271368e-15 C14.7457755,3.55271368e-15 17.9728249,1.74520689 20,4.44336121 C22.0271751,1.74520689 25.2542245,3.55271368e-15 28.8888889,3.55271368e-15 C35.0253861,3.55271368e-15 40,4.97461389 40,11.1111111 C40,14.7457755 38.2547931,17.9728249 35.5566388,20 Z" id="blue" fill="#2E44E3"></path>
            <path d="M20,25 C22.7614237,25 25,22.7614237 25,20 C25,17.2385763 22.7614237,15 20,15 C17.2385763,15 15,17.2385763 15,20 C15,22.7614237 17.2385763,25 20,25 Z" id="hole" fill="#FFFFFF"></path>
        </g>
    </g>
</svg>