<?xml version="1.0" encoding="UTF-8"?>
<svg width="163px" height="163px" viewBox="0 0 163 163" version="1.1" xmlns="http://www.w3.org/2000/svg" xmlns:xlink="http://www.w3.org/1999/xlink">
    <!-- Generator: Sketch 52.6 (67491) - http://www.bohemiancoding.com/sketch -->
    <title>seal</title>
    <desc>Created with Sketch.</desc>
    <g id="wedding-inivation" stroke="none" stroke-width="1" fill="none" fill-rule="evenodd">
        <path d="M54.3615107,147.018109 L49.3751903,147.703696 C32.8289445,149.9787 17.5713072,138.409572 15.2963036,121.863326 C14.9204902,119.130012 14.9204902,116.358124 15.2963036,113.62481 L15.981891,108.638489 L11.9712466,105.597412 C-1.33738652,95.5061197 -3.94555664,76.5367322 6.14573554,63.2280992 C7.81274072,61.0296136 9.77276098,59.0695933 11.9712466,57.4025881 L15.981891,54.3615107 L15.2963036,49.3751903 C13.0213001,32.8289445 24.5904278,17.5713072 41.1366736,15.2963036 C43.8699883,14.9204902 46.6418756,14.9204902 49.3751903,15.2963036 L54.3615107,15.981891 L57.4025881,11.9712466 C67.4938803,-1.33738652 86.4632678,-3.94555664 99.7719008,6.14573554 C101.970386,7.81274072 103.930407,9.77276098 105.597412,11.9712466 L108.638489,15.981891 L113.62481,15.2963036 C130.171056,13.0213001 145.428693,24.5904278 147.703696,41.1366736 C148.07951,43.8699883 148.07951,46.6418756 147.703696,49.3751903 L147.018109,54.3615107 L151.028753,57.4025881 C164.337387,67.4938803 166.945557,86.4632678 156.854264,99.7719008 C155.187259,101.970386 153.227239,103.930407 151.028753,105.597412 L147.018109,108.638489 L147.703696,113.62481 C149.9787,130.171056 138.409572,145.428693 121.863326,147.703696 C119.130012,148.07951 116.358124,148.07951 113.62481,147.703696 L108.638489,147.018109 L105.597412,151.028753 C95.5061197,164.337387 76.5367322,166.945557 63.2280992,156.854264 C61.0296136,155.187259 59.0695933,153.227239 57.4025881,151.028753 L54.3615107,147.018109 Z M93.912,58.432 C94.904,58.432 95.416,57.76 95.416,57.056 C95.416,56.384 94.904,55.68 93.912,55.68 L89.24,55.68 L89.24,52.32 L94.808,52.32 C95.8,52.32 96.312,51.648 96.312,50.944 C96.312,50.272 95.8,49.568 94.808,49.568 L89.272,49.568 L89.272,46.112 C89.272,45.184 88.504,44.704 87.704,44.704 C86.968,44.704 86.2,45.152 86.2,46.112 L86.232,49.568 L81.432,49.568 C80.504,49.568 80.056,50.24 80.056,50.944 C80.056,51.616 80.504,52.32 81.432,52.32 L86.232,52.32 L86.264,55.68 L81.944,55.68 C81.016,55.68 80.536,56.352 80.536,57.056 C80.536,57.728 81.016,58.432 81.944,58.432 L93.912,58.432 Z M94.264,68.608 C94.296,68.096 94.296,67.552 94.296,67.008 C94.296,66.016 94.264,64.992 94.2,63.968 C94.104,62.208 92.632,61.12 90.872,61.024 C89.976,60.96 88.92,60.96 87.832,60.96 C86.776,60.96 85.72,60.96 84.792,61.024 C82.84,61.12 81.688,62.272 81.56,64.096 C81.496,64.864 81.496,65.696 81.496,66.592 C81.496,71.36 82.04,71.968 87.896,71.968 C88.952,71.968 90.008,71.936 90.904,71.872 C93.08,71.712 94.2,70.432 94.264,68.608 Z M72.792,71.232 C72.792,72.224 73.528,72.704 74.296,72.704 C75.032,72.704 75.8,72.224 75.8,71.2 L75.736,59.52 C76.536,59.392 77.208,59.264 77.656,59.168 C78.008,60.384 78.2,60.832 78.968,60.832 C79.672,60.832 80.376,60.192 80.376,59.264 C80.376,58.08 78.616,54.752 77.24,54.752 C76.6,54.752 75.992,55.2 75.992,55.808 C75.992,56.064 76.088,56.32 76.28,56.576 C76.408,56.768 76.6,56.96 76.728,57.184 C75.928,57.28 74.84,57.408 73.656,57.536 C75.992,54.528 78.744,50.144 78.744,49.184 C78.744,48.352 77.944,47.776 77.144,47.776 C76.664,47.776 76.184,48 75.96,48.576 C75.416,49.888 74.52,51.584 73.528,53.216 C73.08,52.8 72.6,52.352 72.088,51.936 C73.144,50.368 75.32,46.4 75.32,45.344 C75.32,44.512 74.488,44 73.72,44 C73.144,44 72.6,44.288 72.44,44.928 C72.024,46.656 70.904,48.992 70.008,50.432 L69.816,50.336 C69.56,50.208 69.336,50.144 69.112,50.144 C68.344,50.144 67.832,50.784 67.832,51.424 C67.832,51.808 68.024,52.192 68.44,52.48 C69.208,52.992 70.968,54.304 72.056,55.424 C71.416,56.352 70.744,57.184 70.136,57.856 C69.56,57.888 69.048,57.92 68.632,57.952 C67.96,57.984 67.608,58.56 67.608,59.136 C67.608,59.776 68.024,60.448 68.792,60.448 C69.016,60.448 71.064,60.192 72.888,59.936 L72.792,71.2 L72.792,71.232 Z M78.968,68.704 C79.736,68.704 80.536,68.096 80.536,67.104 C80.536,66.624 79.896,63.872 78.616,62.304 C78.296,61.888 77.88,61.728 77.464,61.728 C76.824,61.728 76.248,62.144 76.248,62.784 C76.248,63.008 76.312,63.232 76.44,63.456 C76.952,64.416 77.56,66.08 77.72,67.456 C77.816,68.32 78.36,68.704 78.968,68.704 Z M69.976,69.76 C71.096,68.032 72.088,64.288 72.088,63.136 C72.088,62.24 71.352,61.728 70.616,61.728 C70.008,61.728 69.432,62.08 69.336,62.848 C69.112,64.704 68.344,66.944 67.448,68.416 C67.256,68.736 67.16,69.024 67.16,69.312 C67.16,70.048 67.832,70.56 68.568,70.56 C69.08,70.56 69.624,70.304 69.976,69.76 Z M91.352,66.528 C91.352,68.992 91.32,69.312 87.992,69.312 C84.44,69.312 84.376,69.184 84.376,66.688 C84.376,64.48 84.376,63.584 85.72,63.552 C86.392,63.52 87.192,63.488 88.024,63.488 C90.808,63.488 91.256,63.712 91.288,64.736 C91.32,65.312 91.352,65.92 91.352,66.528 Z M93.624,100.216 C94.52,100.184 94.968,99.576 94.968,98.968 C94.968,98.328 94.488,97.688 93.592,97.688 L93.528,97.688 L89.336,97.848 C89.208,96.952 89.08,96.024 89.016,95.032 C92.056,94.584 92.696,94.296 92.696,93.208 C92.696,92.472 92.152,91.736 91.352,91.736 C91.192,91.736 91.032,91.736 90.872,91.8 C88.088,92.696 85.688,92.888 83.032,93.272 C81.016,93.56 80.056,94.776 80.056,96.664 C80.056,98.296 80.024,100.76 80.024,102.776 L80.024,104.216 C79.64,104.312 79.288,104.376 78.936,104.44 C78.296,104.568 77.976,105.112 77.976,105.656 C77.976,106.328 78.424,107.032 79.224,107.032 C79.576,107.032 83.896,106.072 86.936,104.632 C87.512,104.376 87.736,103.928 87.736,103.512 C87.736,102.904 87.256,102.328 86.648,102.328 C86.52,102.328 86.36,102.36 86.2,102.424 C85.336,102.808 84.088,103.192 82.776,103.544 L82.776,100.536 L87.256,100.408 C87.608,101.656 89.368,107.352 93.048,107.352 C95.928,107.352 96.76,103.8 96.76,102.968 C96.76,102.104 95.96,101.56 95.192,101.56 C94.648,101.56 94.104,101.88 93.976,102.616 C93.752,103.96 93.4,104.472 92.952,104.472 C92.632,104.472 91.032,103.896 89.912,100.344 L93.624,100.216 Z M93.4,116.12 C93.4,115.736 93.432,115.288 93.432,114.808 C93.432,113.208 93.368,111.256 93.304,109.912 C93.272,108.664 91.832,107.416 90.264,107.352 C89.176,107.32 87.992,107.288 86.776,107.288 C85.752,107.288 84.728,107.32 83.704,107.352 C81.592,107.448 80.568,108.76 80.504,110.136 C80.44,111.416 80.376,113.176 80.376,114.776 C80.376,115.256 80.408,115.736 80.408,116.184 C80.472,117.784 81.72,118.904 83.736,119.032 C84.792,119.096 85.848,119.128 86.904,119.128 C87.96,119.128 89.048,119.096 90.168,119.032 C91.992,118.936 93.336,117.688 93.4,116.12 Z M73.912,97.848 C74.328,95.224 74.552,92.568 74.552,92.408 C74.552,91.48 73.752,91 72.984,91 C72.28,91 71.576,91.416 71.512,92.312 C71.384,94.104 71.192,95.96 70.936,97.848 C70.232,97.848 69.56,97.88 68.888,97.88 C68.056,97.912 67.608,98.616 67.608,99.32 C67.608,99.992 68.024,100.664 68.888,100.664 L68.952,100.664 L70.52,100.6 C69.976,103.672 69.272,106.776 68.312,109.688 C68.216,109.944 68.184,110.168 68.184,110.392 C68.184,111.256 68.824,111.704 69.496,111.704 C70.168,111.704 70.872,111.288 71.192,110.36 C71.832,110.552 72.408,110.744 72.984,111 C71.864,113.016 70.2,114.84 67.736,116.024 C67.224,116.28 67,116.728 67,117.176 C67,117.912 67.608,118.712 68.536,118.712 C69.56,118.712 72.952,116.92 75.384,112.344 C75.96,112.76 76.472,113.208 76.984,113.688 C77.336,114.04 77.688,114.168 78.008,114.168 C78.776,114.168 79.384,113.432 79.384,112.6 C79.384,111.864 78.904,111.032 76.536,109.752 C77.912,106.072 78.264,102.104 78.264,100.632 C78.264,98.936 77.272,97.88 75.512,97.848 L73.912,97.848 Z M82.776,98.072 C82.776,97.784 82.808,97.56 82.808,97.304 C82.84,96.408 83.096,95.832 84.152,95.672 C84.856,95.544 85.592,95.48 86.328,95.384 C86.424,96.248 86.52,97.112 86.68,97.944 L82.776,98.072 Z M83.096,111.864 C83.096,109.528 83.128,109.528 86.808,109.528 C89.784,109.528 90.52,109.528 90.584,110.776 C90.584,111.064 90.616,111.448 90.616,111.864 L83.096,111.864 Z M90.648,114.072 L90.648,115.48 C90.584,116.664 89.56,116.696 86.968,116.696 C84.056,116.696 83.096,116.632 83.064,115.512 C83.032,115.128 83.032,114.616 83.032,114.072 L90.648,114.072 Z M74.744,100.536 C75.064,100.536 75.416,100.632 75.416,101.112 C75.416,101.24 75.352,105.08 74.04,108.664 C73.304,108.408 72.568,108.184 71.832,108.024 C72.472,105.56 73.016,103 73.464,100.536 L74.744,100.536 Z" id="seal" fill="#FF5630" fill-rule="nonzero"></path>
    </g>
</svg>